<svg width="1012" height="567" xmlns="http://www.w3.org/2000/svg" xmlns:xlink="http://www.w3.org/1999/xlink" xml:space="preserve" overflow="hidden"><g transform="translate(1 1)"><rect x="0" y="0" width="1009" height="564" fill="#FFFFFF"/><g><path d="M365.512 105.5 365.512 439.5M561.519 105.5 561.519 439.5M757.525 105.5 757.525 439.5M953.5 105.5 953.5 439.5" stroke="#D9D9D9" stroke-width="3.43858" stroke-linejoin="round" stroke-miterlimit="10" fill="none"/></g><g><path d="M169.5 373.512 953.5 373.512M169.5 306.51 953.5 306.51M169.5 239.508 953.5 239.508M169.5 172.506 953.5 172.506M169.5 105.5 953.5 105.5" stroke="#D9D9D9" stroke-width="3.43858" stroke-linejoin="round" stroke-miterlimit="10" fill="none"/></g><g><path d="M169.5 439.5 953.5 439.501" stroke="#BFBFBF" stroke-width="3.43858" stroke-linejoin="round" stroke-miterlimit="10" fill="none" fill-rule="evenodd"/></g><g><path d="M0 0 0.000360892 334" stroke="#BFBFBF" stroke-width="3.43858" stroke-linejoin="round" stroke-miterlimit="10" fill="none" fill-rule="evenodd" transform="matrix(1 0 0 -1 169.5 439.5)"/></g><g><path d="M169.5 373.5 228.508 339.511 286.51 306.51 345.512 272.509 404.513 239.508 463.515 205.507 522.517 172.506 580.519 138.5 639.521 172.506 698.523 239.508 757.525 306.51 816.527 373.5 875.5 306.51" stroke="#156082" stroke-width="6.87356" stroke-linecap="round" stroke-linejoin="round" stroke-miterlimit="10" fill="none"/></g><g><text fill="#595959" font-family="Times New Roman,Times New Roman_MSFontService,sans-serif" font-weight="400" font-size="37" transform="matrix(1 0 0 1 160.068 496)">0</text></g><g><text fill="#595959" font-family="Times New Roman,Times New Roman_MSFontService,sans-serif" font-weight="400" font-size="37" transform="matrix(1 0 0 1 346.983 496)">50</text></g><g><text fill="#595959" font-family="Times New Roman,Times New Roman_MSFontService,sans-serif" font-weight="400" font-size="37" transform="matrix(1 0 0 1 533.898 496)">100</text></g><g><text fill="#595959" font-family="Times New Roman,Times New Roman_MSFontService,sans-serif" font-weight="400" font-size="37" transform="matrix(1 0 0 1 729.981 496)">150</text></g><g><text fill="#595959" font-family="Times New Roman,Times New Roman_MSFontService,sans-serif" font-weight="400" font-size="37" transform="matrix(1 0 0 1 926.062 496)">200</text></g><g><text fill="#595959" font-family="Times New Roman,Times New Roman_MSFontService,sans-serif" font-weight="400" font-size="37" transform="matrix(1 0 0 1 101.371 452)">29</text></g><g><text fill="#595959" font-family="Times New Roman,Times New Roman_MSFontService,sans-serif" font-weight="400" font-size="37" transform="matrix(1 0 0 1 101.371 385)">30</text></g><g><text fill="#595959" font-family="Times New Roman,Times New Roman_MSFontService,sans-serif" font-weight="400" font-size="37" transform="matrix(1 0 0 1 101.371 318)">31</text></g><g><text fill="#595959" font-family="Times New Roman,Times New Roman_MSFontService,sans-serif" font-weight="400" font-size="37" transform="matrix(1 0 0 1 101.371 251)">32</text></g><g><text fill="#595959" font-family="Times New Roman,Times New Roman_MSFontService,sans-serif" font-weight="400" font-size="37" transform="matrix(1 0 0 1 101.371 184)">33</text></g><g><text fill="#595959" font-family="Times New Roman,Times New Roman_MSFontService,sans-serif" font-weight="400" font-size="37" transform="matrix(1 0 0 1 101.371 117)">34</text></g><g><text fill="#595959" font-family="Times New Roman,Times New Roman_MSFontService,sans-serif" font-weight="400" font-size="28" transform="matrix(1 0 0 1 463.104 535)">Time (min)</text></g><g><text fill="#595959" font-family="Times New Roman,Times New Roman_MSFontService,sans-serif" font-weight="400" font-size="28" transform="matrix(6.12323e-17 -1 1 6.12323e-17 62.2978 326)">Temp (</text></g><g><text fill="#595959" font-family="Times New Roman,Times New Roman_MSFontService,sans-serif" font-weight="400" font-size="28" transform="matrix(6.12323e-17 -1 1 6.12323e-17 62.2978 246)">°</text></g><g><text fill="#595959" font-family="Times New Roman,Times New Roman_MSFontService,sans-serif" font-weight="400" font-size="28" transform="matrix(6.12323e-17 -1 1 6.12323e-17 62.2978 235)">C)</text></g><g><text fill="#595959" font-family="Times New Roman,Times New Roman_MSFontService,sans-serif" font-weight="400" font-size="37" transform="matrix(1 0 0 1 347.462 68)">Temperature v/s time</text></g><rect x="0.499836" y="0.499836" width="1009" height="564" stroke="#D9D9D9" stroke-width="3.43858" stroke-linejoin="round" stroke-miterlimit="10" fill="none"/></g></svg>