<svg width="293" height="168" xmlns="http://www.w3.org/2000/svg" xmlns:xlink="http://www.w3.org/1999/xlink" xml:space="preserve" overflow="hidden"><defs><clipPath id="clip0"><rect x="0" y="0" width="293" height="168"/></clipPath></defs><g clip-path="url(#clip0)"><path d="M210 455 488.25 455 488.25 622.417 210 622.417Z" fill="#FFFFFF" transform="matrix(1.05081 0 0 1 -220.669 -455)"/><path d="M244.708 574.875 474.542 574.875M244.708 562.042 474.542 562.042M244.708 549.208 474.542 549.208M244.708 535.792 474.542 535.792M244.708 522.958 474.542 522.958M244.708 510.125 474.542 510.125M244.708 497.292 474.542 497.292M244.708 483.875 474.542 483.875" stroke="#D9D9D9" stroke-width="0.583333" stroke-linejoin="round" stroke-miterlimit="10" fill="none" transform="matrix(1.05081 0 0 1 -220.669 -455)"/><path d="M302.458 483.875 302.458 588.292M359.625 483.875 359.625 588.292M416.792 483.875 416.792 588.292M474.542 483.875 474.542 588.292" stroke="#D9D9D9" stroke-width="0.583333" stroke-linejoin="round" stroke-miterlimit="10" fill="none" transform="matrix(1.05081 0 0 1 -220.669 -455)"/><path d="M0 0 6.12424e-05 104.417" stroke="#BFBFBF" stroke-width="0.583333" stroke-linejoin="round" stroke-miterlimit="10" fill="none" fill-rule="evenodd" transform="matrix(1.05081 0 0 -1 36.4718 133.292)"/><path d="M244.708 588.292 474.542 588.292" stroke="#BFBFBF" stroke-width="0.583333" stroke-linejoin="round" stroke-miterlimit="10" fill="none" fill-rule="evenodd" transform="matrix(1.05081 0 0 1 -220.669 -455)"/><path d="M245 519.167 261.917 520.333 279.417 521.5 296.333 523.25 313.833 512.167 330.75 513.333 348.25 509.25 365.167 506.917 382.667 502.833 399.583 499.333 417.083 497 434 502.25 451.5 505.167" stroke="#4472C4" stroke-width="1.16667" stroke-linecap="round" stroke-linejoin="round" stroke-miterlimit="10" fill="none" transform="matrix(1.05081 0 0 1 -220.669 -455)"/><text fill="#595959" font-family="Calibri,Calibri_MSFontService,sans-serif" font-weight="400" font-size="12" transform="matrix(0.612971 0 0 0.583333 26.0752 135)">0</text><text fill="#595959" font-family="Calibri,Calibri_MSFontService,sans-serif" font-weight="400" font-size="12" transform="matrix(0.612971 0 0 0.583333 26.0752 122)">5</text><text fill="#595959" font-family="Calibri,Calibri_MSFontService,sans-serif" font-weight="400" font-size="12" transform="matrix(0.612971 0 0 0.583333 22.3483 109)">10</text><text fill="#595959" font-family="Calibri,Calibri_MSFontService,sans-serif" font-weight="400" font-size="12" transform="matrix(0.612971 0 0 0.583333 22.3483 96)">15</text><text fill="#595959" font-family="Calibri,Calibri_MSFontService,sans-serif" font-weight="400" font-size="12" transform="matrix(0.612971 0 0 0.583333 22.3483 83)">20</text><text fill="#595959" font-family="Calibri,Calibri_MSFontService,sans-serif" font-weight="400" font-size="12" transform="matrix(0.612971 0 0 0.583333 22.3483 70)">25</text><text fill="#595959" font-family="Calibri,Calibri_MSFontService,sans-serif" font-weight="400" font-size="12" transform="matrix(0.612971 0 0 0.583333 22.3483 57)">30</text><text fill="#595959" font-family="Calibri,Calibri_MSFontService,sans-serif" font-weight="400" font-size="12" transform="matrix(0.612971 0 0 0.583333 22.3483 44)">35</text><text fill="#595959" font-family="Calibri,Calibri_MSFontService,sans-serif" font-weight="400" font-size="12" transform="matrix(0.612971 0 0 0.583333 22.3483 31)">40</text><text fill="#595959" font-family="Calibri,Calibri_MSFontService,sans-serif" font-weight="400" font-size="12" transform="matrix(0.612971 0 0 0.583333 34.7622 144)">0</text><text fill="#595959" font-family="Calibri,Calibri_MSFontService,sans-serif" font-weight="400" font-size="12" transform="matrix(0.612971 0 0 0.583333 93.2163 144)">50</text><text fill="#595959" font-family="Calibri,Calibri_MSFontService,sans-serif" font-weight="400" font-size="12" transform="matrix(0.612971 0 0 0.583333 151.671 144)">100</text><text fill="#595959" font-family="Calibri,Calibri_MSFontService,sans-serif" font-weight="400" font-size="12" transform="matrix(0.612971 0 0 0.583333 211.989 144)">150</text><text fill="#595959" font-family="Calibri,Calibri_MSFontService,sans-serif" font-weight="400" font-size="12" transform="matrix(0.612971 0 0 0.583333 272.307 144)">200</text><text fill="#595959" font-family="Calibri,Calibri_MSFontService,sans-serif" font-weight="400" font-size="13" transform="matrix(3.75336e-17 -0.583333 0.612971 3.57188e-17 17.8896 97)">Temp </text><text fill="#595959" font-family="Calibri,Calibri_MSFontService,sans-serif" font-weight="400" font-size="13" transform="matrix(3.75336e-17 -0.583333 0.612971 3.57188e-17 17.8896 79)">(</text><text fill="#595959" font-family="Times New Roman,Times New Roman_MSFontService,sans-serif" font-weight="400" font-size="13" transform="matrix(3.75336e-17 -0.583333 0.612971 3.57188e-17 17.8896 75)">°</text><text fill="#595959" font-family="Times New Roman,Times New Roman_MSFontService,sans-serif" font-weight="400" font-size="13" transform="matrix(3.75336e-17 -0.583333 0.612971 3.57188e-17 17.8896 72)">C</text><text fill="#595959" font-family="Times New Roman,Times New Roman_MSFontService,sans-serif" font-weight="400" font-size="13" transform="matrix(3.75336e-17 -0.583333 0.612971 3.57188e-17 17.8896 67)">)</text><text fill="#595959" font-family="Calibri,Calibri_MSFontService,sans-serif" font-weight="400" font-size="13" transform="matrix(0.612971 0 0 0.583333 139.283 156)">Time </text><text fill="#595959" font-family="Calibri,Calibri_MSFontService,sans-serif" font-weight="400" font-size="13" transform="matrix(0.612971 0 0 0.583333 157.127 156)">(</text><text fill="#595959" font-family="Calibri,Calibri_MSFontService,sans-serif" font-weight="400" font-size="13" transform="matrix(0.612971 0 0 0.583333 159.543 156)">min</text><text fill="#595959" font-family="Calibri,Calibri_MSFontService,sans-serif" font-weight="400" font-size="13" transform="matrix(0.612971 0 0 0.583333 171.924 156)">)</text><text fill="#595959" font-family="Calibri,Calibri_MSFontService,sans-serif" font-weight="400" font-size="19" transform="matrix(0.612971 0 0 0.583333 96.1365 16)">Temperature v</text><text fill="#595959" font-family="Calibri,Calibri_MSFontService,sans-serif" font-weight="400" font-size="19" transform="matrix(0.612971 0 0 0.583333 164.696 16)">/</text><text fill="#595959" font-family="Calibri,Calibri_MSFontService,sans-serif" font-weight="400" font-size="19" transform="matrix(0.612971 0 0 0.583333 169.194 16)">s time</text><path d="M210.292 455.292 488.542 455.292 488.542 622.708 210.292 622.708Z" stroke="#D9D9D9" stroke-width="0.583333" stroke-linejoin="round" stroke-miterlimit="10" fill="none" transform="matrix(1.05081 0 0 1 -220.669 -455)"/></g></svg>