<svg width="290" height="158" xmlns="http://www.w3.org/2000/svg" xmlns:xlink="http://www.w3.org/1999/xlink" xml:space="preserve" overflow="hidden"><g><path d="M711 236.451 973.236 236.451 973.236 393.903 711 393.903Z" fill="#FFFFFF" transform="matrix(1.10356 0 0 1 -784.635 -236.451)"/><path d="M740.899 331.087 960.344 331.087M740.899 317.372 960.344 317.372M740.899 304.205 960.344 304.205M740.899 290.49 960.344 290.49M740.899 277.323 960.344 277.323M740.899 263.608 960.344 263.608" stroke="#D9D9D9" stroke-width="0.548611" stroke-linejoin="round" stroke-miterlimit="10" fill="none" transform="matrix(1.10356 0 0 1 -784.635 -236.451)"/><path d="M795.76 263.608 795.76 344.802M850.622 263.608 850.622 344.802M905.483 263.608 905.483 344.802M960.344 263.608 960.344 344.802" stroke="#D9D9D9" stroke-width="0.548611" stroke-linejoin="round" stroke-miterlimit="10" fill="none" transform="matrix(1.10356 0 0 1 -784.635 -236.451)"/><path d="M0 0 5.7597e-05 81.1944" stroke="#BFBFBF" stroke-width="0.548611" stroke-linejoin="round" stroke-miterlimit="10" fill="none" fill-rule="evenodd" transform="matrix(1.10356 0 0 -1 32.9958 108.351)"/><path d="M740.899 344.802 960.344 344.802" stroke="#BFBFBF" stroke-width="0.548611" stroke-linejoin="round" stroke-miterlimit="10" fill="none" fill-rule="evenodd" transform="matrix(1.10356 0 0 1 -784.635 -236.451)"/><path d="M741.174 277.049 757.632 277.597 774.09 300.09 790.549 344.528 807.007 344.528 823.465 344.528 839.924 344.528 856.382 280.34 872.84 289.118 889.299 344.528 905.757 344.528 922.215 285.278 938.674 277.049" stroke="#70AD47" stroke-width="1.09722" stroke-linecap="round" stroke-linejoin="round" stroke-miterlimit="10" fill="none" transform="matrix(1.10356 0 0 1 -784.635 -236.451)"/><path d="M741.174 344.528 757.632 342.882 774.09 321.486 790.549 277.049 807.007 277.049 823.465 277.049 839.924 277.049 856.382 341.785 872.84 332.458 889.299 277.049 905.757 277.049 922.215 336.299 938.674 344.528" stroke="#C00000" stroke-width="1.09722" stroke-linecap="round" stroke-linejoin="round" stroke-miterlimit="10" fill="none" transform="matrix(1.10356 0 0 1 -784.635 -236.451)"/><text fill="#595959" font-family="Calibri,Calibri_MSFontService,sans-serif" font-weight="400" font-size="12" transform="matrix(0.605428 0 0 0.548611 22.6127 110)">0</text><text fill="#595959" font-family="Calibri,Calibri_MSFontService,sans-serif" font-weight="400" font-size="12" transform="matrix(0.605428 0 0 0.548611 22.6127 97)">1</text><text fill="#595959" font-family="Calibri,Calibri_MSFontService,sans-serif" font-weight="400" font-size="12" transform="matrix(0.605428 0 0 0.548611 22.6127 83)">2</text><text fill="#595959" font-family="Calibri,Calibri_MSFontService,sans-serif" font-weight="400" font-size="12" transform="matrix(0.605428 0 0 0.548611 22.6127 69)">3</text><text fill="#595959" font-family="Calibri,Calibri_MSFontService,sans-serif" font-weight="400" font-size="12" transform="matrix(0.605428 0 0 0.548611 22.6127 56)">4</text><text fill="#595959" font-family="Calibri,Calibri_MSFontService,sans-serif" font-weight="400" font-size="12" transform="matrix(0.605428 0 0 0.548611 22.6127 42)">5</text><text fill="#595959" font-family="Calibri,Calibri_MSFontService,sans-serif" font-weight="400" font-size="12" transform="matrix(0.605428 0 0 0.548611 22.6127 29)">6</text><text fill="#595959" font-family="Calibri,Calibri_MSFontService,sans-serif" font-weight="400" font-size="12" transform="matrix(0.605428 0 0 0.548611 31.1916 119)">0</text><text fill="#595959" font-family="Calibri,Calibri_MSFontService,sans-serif" font-weight="400" font-size="12" transform="matrix(0.605428 0 0 0.548611 89.8939 119)">50</text><text fill="#595959" font-family="Calibri,Calibri_MSFontService,sans-serif" font-weight="400" font-size="12" transform="matrix(0.605428 0 0 0.548611 148.59 119)">100</text><text fill="#595959" font-family="Calibri,Calibri_MSFontService,sans-serif" font-weight="400" font-size="12" transform="matrix(0.605428 0 0 0.548611 209.133 119)">150</text><text fill="#595959" font-family="Calibri,Calibri_MSFontService,sans-serif" font-weight="400" font-size="12" transform="matrix(0.605428 0 0 0.548611 269.676 119)">200</text><text fill="#595959" font-family="Calibri,Calibri_MSFontService,sans-serif" font-weight="400" font-size="13" transform="matrix(3.70717e-17 -0.548611 0.605428 3.35927e-17 18.2052 84)">Voltage </text><text fill="#595959" font-family="Calibri,Calibri_MSFontService,sans-serif" font-weight="400" font-size="13" transform="matrix(3.70717e-17 -0.548611 0.605428 3.35927e-17 18.2052 61)">(</text><text fill="#595959" font-family="Calibri,Calibri_MSFontService,sans-serif" font-weight="400" font-size="13" transform="matrix(3.70717e-17 -0.548611 0.605428 3.35927e-17 18.2052 58)">V</text><text fill="#595959" font-family="Calibri,Calibri_MSFontService,sans-serif" font-weight="400" font-size="13" transform="matrix(3.70717e-17 -0.548611 0.605428 3.35927e-17 18.2052 54)">)</text><text fill="#595959" font-family="Calibri,Calibri_MSFontService,sans-serif" font-weight="400" font-size="13" transform="matrix(0.605428 0 0 0.548611 136.354 129)">Time </text><text fill="#595959" font-family="Calibri,Calibri_MSFontService,sans-serif" font-weight="400" font-size="13" transform="matrix(0.605428 0 0 0.548611 153.979 129)">(</text><text fill="#595959" font-family="Calibri,Calibri_MSFontService,sans-serif" font-weight="400" font-size="13" transform="matrix(0.605428 0 0 0.548611 156.365 129)">min</text><text fill="#595959" font-family="Calibri,Calibri_MSFontService,sans-serif" font-weight="400" font-size="13" transform="matrix(0.605428 0 0 0.548611 168.594 129)">)</text><text fill="#595959" font-family="Calibri,Calibri_MSFontService,sans-serif" font-weight="400" font-size="19" transform="matrix(0.605428 0 0 0.548611 98.6545 15)">Power management</text><path d="M811.944 383.479 825.66 383.479" stroke="#70AD47" stroke-width="1.09722" stroke-linecap="round" stroke-linejoin="round" stroke-miterlimit="10" fill="none" fill-rule="evenodd" transform="matrix(1.10356 0 0 1 -784.635 -236.451)"/><text fill="#595959" font-family="Calibri,Calibri_MSFontService,sans-serif" font-weight="400" font-size="12" transform="matrix(0.605428 0 0 0.548611 128.399 149)">solar</text><path d="M846.507 383.479 860.771 383.479" stroke="#C00000" stroke-width="1.09722" stroke-linecap="round" stroke-linejoin="round" stroke-miterlimit="10" fill="none" fill-rule="evenodd" transform="matrix(1.10356 0 0 1 -784.635 -236.451)"/><text fill="#595959" font-family="Calibri,Calibri_MSFontService,sans-serif" font-weight="400" font-size="12" transform="matrix(0.605428 0 0 0.548611 166.65 149)">main</text><path d="M711.274 236.726 973.51 236.726 973.51 394.177 711.274 394.177Z" stroke="#D9D9D9" stroke-width="0.548611" stroke-linejoin="round" stroke-miterlimit="10" fill="none" transform="matrix(1.10356 0 0 1 -784.635 -236.451)"/></g></svg>