<svg width="276" height="165" xmlns="http://www.w3.org/2000/svg" xmlns:xlink="http://www.w3.org/1999/xlink" xml:space="preserve" overflow="hidden"><g><path d="M723.021 50.4167 996.875 50.4167 996.875 214.844 723.021 214.844Z" fill="#FFFFFF" transform="matrix(1.00573 0 0 1 -727.165 -50.4167)"/><path d="M757.682 164.141 982.839 164.141M757.682 146.953 982.839 146.953M757.682 129.766 982.839 129.766M757.682 113.151 982.839 113.151M757.682 95.9635 982.839 95.9635M757.682 78.776 982.839 78.776" stroke="#D9D9D9" stroke-width="0.572917" stroke-linejoin="round" stroke-miterlimit="10" fill="none" transform="matrix(1.00573 0 0 1 -727.165 -50.4167)"/><path d="M813.828 78.776 813.828 181.328M870.547 78.776 870.547 181.328M926.693 78.776 926.693 181.328M982.839 78.776 982.839 181.328" stroke="#D9D9D9" stroke-width="0.572917" stroke-linejoin="round" stroke-miterlimit="10" fill="none" transform="matrix(1.00573 0 0 1 -727.165 -50.4167)"/><path d="M0 0 6.01488e-05 102.552" stroke="#BFBFBF" stroke-width="0.572917" stroke-linejoin="round" stroke-miterlimit="10" fill="none" fill-rule="evenodd" transform="matrix(1.00573 0 0 -1 34.8601 130.911)"/><path d="M757.682 181.328 982.839 181.328" stroke="#BFBFBF" stroke-width="0.572917" stroke-linejoin="round" stroke-miterlimit="10" fill="none" fill-rule="evenodd" transform="matrix(1.00573 0 0 1 -727.165 -50.4167)"/><path d="M757.396 147.812 774.583 140.365 791.198 135.781 808.385 122.031 825 119.74 842.188 115.156 858.802 112.292 875.99 104.844 892.604 100.833 909.792 96.8229 926.406 163.854 943.594 156.406 960.781 152.396" stroke="#4472C4" stroke-width="1.14583" stroke-linecap="round" stroke-linejoin="round" stroke-miterlimit="10" fill="none" transform="matrix(1.00573 0 0 1 -727.165 -50.4167)"/><text fill="#595959" font-family="Calibri,Calibri_MSFontService,sans-serif" font-weight="400" font-size="12" transform="matrix(0.5762 0 0 0.572917 24.8112 132)">0</text><text fill="#595959" font-family="Calibri,Calibri_MSFontService,sans-serif" font-weight="400" font-size="12" transform="matrix(0.5762 0 0 0.572917 24.8112 115)">2</text><text fill="#595959" font-family="Calibri,Calibri_MSFontService,sans-serif" font-weight="400" font-size="12" transform="matrix(0.5762 0 0 0.572917 24.8112 99)">4</text><text fill="#595959" font-family="Calibri,Calibri_MSFontService,sans-serif" font-weight="400" font-size="12" transform="matrix(0.5762 0 0 0.572917 24.8112 81)">6</text><text fill="#595959" font-family="Calibri,Calibri_MSFontService,sans-serif" font-weight="400" font-size="12" transform="matrix(0.5762 0 0 0.572917 24.8112 64)">8</text><text fill="#595959" font-family="Calibri,Calibri_MSFontService,sans-serif" font-weight="400" font-size="12" transform="matrix(0.5762 0 0 0.572917 21.3079 48)">10</text><text fill="#595959" font-family="Calibri,Calibri_MSFontService,sans-serif" font-weight="400" font-size="12" transform="matrix(0.5762 0 0 0.572917 21.3079 30)">12</text><text fill="#595959" font-family="Calibri,Calibri_MSFontService,sans-serif" font-weight="400" font-size="12" transform="matrix(0.5762 0 0 0.572917 32.9759 142)">0</text><text fill="#595959" font-family="Calibri,Calibri_MSFontService,sans-serif" font-weight="400" font-size="12" transform="matrix(0.5762 0 0 0.572917 87.9224 142)">50</text><text fill="#595959" font-family="Calibri,Calibri_MSFontService,sans-serif" font-weight="400" font-size="12" transform="matrix(0.5762 0 0 0.572917 142.869 142)">100</text><text fill="#595959" font-family="Calibri,Calibri_MSFontService,sans-serif" font-weight="400" font-size="12" transform="matrix(0.5762 0 0 0.572917 199.573 142)">150</text><text fill="#595959" font-family="Calibri,Calibri_MSFontService,sans-serif" font-weight="400" font-size="12" transform="matrix(0.5762 0 0 0.572917 256.271 142)">200</text><text fill="#595959" font-family="Calibri,Calibri_MSFontService,sans-serif" font-weight="400" font-size="13" transform="matrix(3.52821e-17 -0.572917 0.5762 3.5081e-17 17.1132 113)">Water level drop </text><text fill="#595959" font-family="Calibri,Calibri_MSFontService,sans-serif" font-weight="400" font-size="13" transform="matrix(3.52821e-17 -0.572917 0.5762 3.5081e-17 17.1132 61)">(</text><text fill="#595959" font-family="Calibri,Calibri_MSFontService,sans-serif" font-weight="400" font-size="13" transform="matrix(3.52821e-17 -0.572917 0.5762 3.5081e-17 17.1132 59)">cm</text><text fill="#595959" font-family="Calibri,Calibri_MSFontService,sans-serif" font-weight="400" font-size="13" transform="matrix(3.52821e-17 -0.572917 0.5762 3.5081e-17 17.1132 50)">)</text><text fill="#595959" font-family="Calibri,Calibri_MSFontService,sans-serif" font-weight="400" font-size="13" transform="matrix(0.5762 0 0 0.572917 131.224 153)">Time </text><text fill="#595959" font-family="Calibri,Calibri_MSFontService,sans-serif" font-weight="400" font-size="13" transform="matrix(0.5762 0 0 0.572917 147.997 153)">(</text><text fill="#595959" font-family="Calibri,Calibri_MSFontService,sans-serif" font-weight="400" font-size="13" transform="matrix(0.5762 0 0 0.572917 150.269 153)">min</text><text fill="#595959" font-family="Calibri,Calibri_MSFontService,sans-serif" font-weight="400" font-size="13" transform="matrix(0.5762 0 0 0.572917 161.907 153)">)</text><text fill="#595959" font-family="Calibri,Calibri_MSFontService,sans-serif" font-weight="400" font-size="19" transform="matrix(0.5762 0 0 0.572917 93.8746 16)">Water level v</text><text fill="#595959" font-family="Calibri,Calibri_MSFontService,sans-serif" font-weight="400" font-size="19" transform="matrix(0.5762 0 0 0.572917 151.789 16)">/</text><text fill="#595959" font-family="Calibri,Calibri_MSFontService,sans-serif" font-weight="400" font-size="19" transform="matrix(0.5762 0 0 0.572917 156.017 16)">s time </text><path d="M723.307 50.7032 997.161 50.7032 997.161 215.13 723.307 215.13Z" stroke="#D9D9D9" stroke-width="0.572917" stroke-linejoin="round" stroke-miterlimit="10" fill="none" transform="matrix(1.00573 0 0 1 -727.165 -50.4167)"/></g></svg>